{
	"asset":{
		"generator":"Khronos glTF Blender I/O v3.6.27",
		"version":"2.0"
	},
	"extensionsUsed":[
		"KHR_materials_specular",
		"KHR_materials_ior"
	],
	"scene":0,
	"scenes":[
		{
			"name":"Scene",
			"nodes":[
				0
			]
		}
	],
	"nodes":[
		{
			"mesh":0,
			"name":"blu.001",
			"scale":[
				0.02399998903274536,
				0.02399998903274536,
				0.02399998903274536
			]
		}
	],
	"materials":[
		{
			"doubleSided":true,
			"extensions":{
				"KHR_materials_specular":{
					"specularColorFactor":[
						0,
						0,
						0
					]
				},
				"KHR_materials_ior":{
					"ior":1.4500000476837158
				}
			},
			"name":"texture_0",
			"pbrMetallicRoughness":{
				"baseColorTexture":{
					"index":0
				},
				"metallicFactor":0
			}
		},
		{
			"doubleSided":true,
			"extensions":{
				"KHR_materials_specular":{
					"specularColorFactor":[
						0,
						0,
						0
					]
				},
				"KHR_materials_ior":{
					"ior":1.4500000476837158
				}
			},
			"name":"texture_1",
			"pbrMetallicRoughness":{
				"baseColorTexture":{
					"index":1
				},
				"metallicFactor":0
			}
		},
		{
			"doubleSided":true,
			"extensions":{
				"KHR_materials_specular":{
					"specularColorFactor":[
						0,
						0,
						0
					]
				},
				"KHR_materials_ior":{
					"ior":1.4500000476837158
				}
			},
			"name":"texture_2",
			"pbrMetallicRoughness":{
				"baseColorTexture":{
					"index":2
				},
				"metallicFactor":0
			}
		},
		{
			"doubleSided":true,
			"extensions":{
				"KHR_materials_specular":{
					"specularColorFactor":[
						0,
						0,
						0
					]
				},
				"KHR_materials_ior":{
					"ior":1.4500000476837158
				}
			},
			"name":"texture_3",
			"pbrMetallicRoughness":{
				"baseColorTexture":{
					"index":3
				},
				"metallicFactor":0
			}
		},
		{
			"doubleSided":true,
			"extensions":{
				"KHR_materials_specular":{
					"specularColorFactor":[
						0,
						0,
						0
					]
				},
				"KHR_materials_ior":{
					"ior":1.4500000476837158
				}
			},
			"name":"texture_4",
			"pbrMetallicRoughness":{
				"baseColorTexture":{
					"index":4
				},
				"metallicFactor":0
			}
		},
		{
			"doubleSided":true,
			"extensions":{
				"KHR_materials_specular":{
					"specularColorFactor":[
						0,
						0,
						0
					]
				},
				"KHR_materials_ior":{
					"ior":1.4500000476837158
				}
			},
			"name":"texture_5",
			"pbrMetallicRoughness":{
				"baseColorTexture":{
					"index":5
				},
				"metallicFactor":0
			}
		},
		{
			"doubleSided":true,
			"extensions":{
				"KHR_materials_specular":{
					"specularColorFactor":[
						0,
						0,
						0
					]
				},
				"KHR_materials_ior":{
					"ior":1.4500000476837158
				}
			},
			"name":"texture_6",
			"pbrMetallicRoughness":{
				"baseColorTexture":{
					"index":6
				},
				"metallicFactor":0
			}
		},
		{
			"doubleSided":true,
			"extensions":{
				"KHR_materials_specular":{
					"specularColorFactor":[
						0,
						0,
						0
					]
				},
				"KHR_materials_ior":{
					"ior":1.4500000476837158
				}
			},
			"name":"texture_7",
			"pbrMetallicRoughness":{
				"baseColorTexture":{
					"index":7
				},
				"metallicFactor":0
			}
		},
		{
			"doubleSided":true,
			"extensions":{
				"KHR_materials_specular":{
					"specularColorFactor":[
						0,
						0,
						0
					]
				},
				"KHR_materials_ior":{
					"ior":1.4500000476837158
				}
			},
			"name":"texture_8",
			"pbrMetallicRoughness":{
				"baseColorTexture":{
					"index":8
				},
				"metallicFactor":0
			}
		},
		{
			"doubleSided":true,
			"extensions":{
				"KHR_materials_specular":{
					"specularColorFactor":[
						0,
						0,
						0
					]
				},
				"KHR_materials_ior":{
					"ior":1.4500000476837158
				}
			},
			"name":"texture_9",
			"pbrMetallicRoughness":{
				"baseColorTexture":{
					"index":9
				},
				"metallicFactor":0
			}
		}
	],
	"meshes":[
		{
			"name":"blu.001",
			"primitives":[
				{
					"attributes":{
						"COLOR_0":0,
						"POSITION":1,
						"NORMAL":2,
						"TEXCOORD_0":3
					},
					"indices":4,
					"material":0
				},
				{
					"attributes":{
						"COLOR_0":5,
						"POSITION":6,
						"NORMAL":7,
						"TEXCOORD_0":8
					},
					"indices":9,
					"material":1
				},
				{
					"attributes":{
						"COLOR_0":10,
						"POSITION":11,
						"NORMAL":12,
						"TEXCOORD_0":13
					},
					"indices":14,
					"material":2
				},
				{
					"attributes":{
						"COLOR_0":15,
						"POSITION":16,
						"NORMAL":17,
						"TEXCOORD_0":18
					},
					"indices":19,
					"material":3
				},
				{
					"attributes":{
						"COLOR_0":20,
						"POSITION":21,
						"NORMAL":22,
						"TEXCOORD_0":23
					},
					"indices":24,
					"material":4
				},
				{
					"attributes":{
						"COLOR_0":25,
						"POSITION":26,
						"NORMAL":27,
						"TEXCOORD_0":28
					},
					"indices":29,
					"material":5
				},
				{
					"attributes":{
						"COLOR_0":30,
						"POSITION":31,
						"NORMAL":32,
						"TEXCOORD_0":33
					},
					"indices":34,
					"material":6
				},
				{
					"attributes":{
						"COLOR_0":35,
						"POSITION":36,
						"NORMAL":37,
						"TEXCOORD_0":38
					},
					"indices":39,
					"material":7
				},
				{
					"attributes":{
						"COLOR_0":40,
						"POSITION":41,
						"NORMAL":42,
						"TEXCOORD_0":43
					},
					"indices":44,
					"material":8
				},
				{
					"attributes":{
						"COLOR_0":45,
						"POSITION":46,
						"NORMAL":47,
						"TEXCOORD_0":48
					},
					"indices":49,
					"material":9
				}
			]
		}
	],
	"textures":[
		{
			"sampler":0,
			"source":0
		},
		{
			"sampler":0,
			"source":1
		},
		{
			"sampler":0,
			"source":2
		},
		{
			"sampler":0,
			"source":3
		},
		{
			"sampler":0,
			"source":4
		},
		{
			"sampler":0,
			"source":5
		},
		{
			"sampler":0,
			"source":6
		},
		{
			"sampler":0,
			"source":7
		},
		{
			"sampler":0,
			"source":8
		},
		{
			"sampler":0,
			"source":9
		}
	],
	"images":[
		{
			"bufferView":5,
			"mimeType":"image/png",
			"name":"blu_texture_0"
		},
		{
			"bufferView":11,
			"mimeType":"image/png",
			"name":"blu_texture_1"
		},
		{
			"bufferView":17,
			"mimeType":"image/png",
			"name":"blu_texture_2"
		},
		{
			"bufferView":23,
			"mimeType":"image/png",
			"name":"blu_texture_3"
		},
		{
			"bufferView":29,
			"mimeType":"image/png",
			"name":"blu_texture_4"
		},
		{
			"bufferView":35,
			"mimeType":"image/png",
			"name":"blu_texture_5"
		},
		{
			"bufferView":41,
			"mimeType":"image/png",
			"name":"blu_texture_6"
		},
		{
			"bufferView":47,
			"mimeType":"image/png",
			"name":"blu_texture_7"
		},
		{
			"bufferView":53,
			"mimeType":"image/png",
			"name":"blu_texture_8"
		},
		{
			"bufferView":59,
			"mimeType":"image/png",
			"name":"blu_texture_9"
		}
	],
	"accessors":[
		{
			"bufferView":0,
			"componentType":5126,
			"count":8803,
			"type":"VEC4"
		},
		{
			"bufferView":1,
			"componentType":5126,
			"count":8803,
			"max":[
				8752,
				432,
				10992
			],
			"min":[
				-1024,
				47.999996185302734,
				-13872
			],
			"type":"VEC3"
		},
		{
			"bufferView":2,
			"componentType":5126,
			"count":8803,
			"type":"VEC3"
		},
		{
			"bufferView":3,
			"componentType":5126,
			"count":8803,
			"type":"VEC2"
		},
		{
			"bufferView":4,
			"componentType":5123,
			"count":17991,
			"type":"SCALAR"
		},
		{
			"bufferView":6,
			"componentType":5126,
			"count":2469,
			"type":"VEC4"
		},
		{
			"bufferView":7,
			"componentType":5126,
			"count":2469,
			"max":[
				8751.9990234375,
				623.9999389648438,
				10991.9990234375
			],
			"min":[
				-1023.9999389648438,
				527.9998168945312,
				-13871.9990234375
			],
			"type":"VEC3"
		},
		{
			"bufferView":8,
			"componentType":5126,
			"count":2469,
			"type":"VEC3"
		},
		{
			"bufferView":9,
			"componentType":5126,
			"count":2469,
			"type":"VEC2"
		},
		{
			"bufferView":10,
			"componentType":5123,
			"count":4560,
			"type":"SCALAR"
		},
		{
			"bufferView":12,
			"componentType":5126,
			"count":2571,
			"type":"VEC4"
		},
		{
			"bufferView":13,
			"componentType":5126,
			"count":2571,
			"max":[
				8751.9990234375,
				527.9999389648438,
				10991.9990234375
			],
			"min":[
				-1023.9999389648438,
				431.9999084472656,
				-13871.9990234375
			],
			"type":"VEC3"
		},
		{
			"bufferView":14,
			"componentType":5126,
			"count":2571,
			"type":"VEC3"
		},
		{
			"bufferView":15,
			"componentType":5126,
			"count":2571,
			"type":"VEC2"
		},
		{
			"bufferView":16,
			"componentType":5123,
			"count":4599,
			"type":"SCALAR"
		},
		{
			"bufferView":18,
			"componentType":5126,
			"count":3316,
			"type":"VEC4"
		},
		{
			"bufferView":19,
			"componentType":5126,
			"count":3316,
			"max":[
				8751.9990234375,
				431.9999694824219,
				10991.9990234375
			],
			"min":[
				-1023.9999389648438,
				335.99993896484375,
				-13871.9990234375
			],
			"type":"VEC3"
		},
		{
			"bufferView":20,
			"componentType":5126,
			"count":3316,
			"type":"VEC3"
		},
		{
			"bufferView":21,
			"componentType":5126,
			"count":3316,
			"type":"VEC2"
		},
		{
			"bufferView":22,
			"componentType":5123,
			"count":6222,
			"type":"SCALAR"
		},
		{
			"bufferView":24,
			"componentType":5126,
			"count":4474,
			"type":"VEC4"
		},
		{
			"bufferView":25,
			"componentType":5126,
			"count":4474,
			"max":[
				8751.9990234375,
				336,
				10991.9990234375
			],
			"min":[
				-1023.9999389648438,
				239.9999542236328,
				-13871.9990234375
			],
			"type":"VEC3"
		},
		{
			"bufferView":26,
			"componentType":5126,
			"count":4474,
			"type":"VEC3"
		},
		{
			"bufferView":27,
			"componentType":5126,
			"count":4474,
			"type":"VEC2"
		},
		{
			"bufferView":28,
			"componentType":5123,
			"count":8460,
			"type":"SCALAR"
		},
		{
			"bufferView":30,
			"componentType":5126,
			"count":1779,
			"type":"VEC4"
		},
		{
			"bufferView":31,
			"componentType":5126,
			"count":1779,
			"max":[
				8703.9990234375,
				431.9999694824219,
				10831.9990234375
			],
			"min":[
				-1023.9999389648438,
				47.999996185302734,
				-13823.9990234375
			],
			"type":"VEC3"
		},
		{
			"bufferView":32,
			"componentType":5126,
			"count":1779,
			"type":"VEC3"
		},
		{
			"bufferView":33,
			"componentType":5126,
			"count":1779,
			"type":"VEC2"
		},
		{
			"bufferView":34,
			"componentType":5123,
			"count":3162,
			"type":"SCALAR"
		},
		{
			"bufferView":36,
			"componentType":5126,
			"count":4794,
			"type":"VEC4"
		},
		{
			"bufferView":37,
			"componentType":5126,
			"count":4794,
			"max":[
				8751.9990234375,
				240.00003051757812,
				10991.9990234375
			],
			"min":[
				-1023.9999389648438,
				143.99996948242188,
				-13871.9990234375
			],
			"type":"VEC3"
		},
		{
			"bufferView":38,
			"componentType":5126,
			"count":4794,
			"type":"VEC3"
		},
		{
			"bufferView":39,
			"componentType":5126,
			"count":4794,
			"type":"VEC2"
		},
		{
			"bufferView":40,
			"componentType":5123,
			"count":9423,
			"type":"SCALAR"
		},
		{
			"bufferView":42,
			"componentType":5126,
			"count":3877,
			"type":"VEC4"
		},
		{
			"bufferView":43,
			"componentType":5126,
			"count":3877,
			"max":[
				8751.9990234375,
				48.000038146972656,
				10991.9990234375
			],
			"min":[
				-1023.9999389648438,
				-47.999996185302734,
				-13871.9990234375
			],
			"type":"VEC3"
		},
		{
			"bufferView":44,
			"componentType":5126,
			"count":3877,
			"type":"VEC3"
		},
		{
			"bufferView":45,
			"componentType":5126,
			"count":3877,
			"type":"VEC2"
		},
		{
			"bufferView":46,
			"componentType":5123,
			"count":11748,
			"type":"SCALAR"
		},
		{
			"bufferView":48,
			"componentType":5126,
			"count":7128,
			"type":"VEC4"
		},
		{
			"bufferView":49,
			"componentType":5126,
			"count":7128,
			"max":[
				8751.9990234375,
				48.000038146972656,
				10991.9990234375
			],
			"min":[
				-1023.9999389648438,
				-47.999996185302734,
				-13871.9990234375
			],
			"type":"VEC3"
		},
		{
			"bufferView":50,
			"componentType":5126,
			"count":7128,
			"type":"VEC3"
		},
		{
			"bufferView":51,
			"componentType":5126,
			"count":7128,
			"type":"VEC2"
		},
		{
			"bufferView":52,
			"componentType":5123,
			"count":12981,
			"type":"SCALAR"
		},
		{
			"bufferView":54,
			"componentType":5126,
			"count":4,
			"type":"VEC4"
		},
		{
			"bufferView":55,
			"componentType":5126,
			"count":4,
			"max":[
				8527.9990234375,
				175.99998474121094,
				-8927.9990234375
			],
			"min":[
				8383.9990234375,
				175.99998474121094,
				-9071.9990234375
			],
			"type":"VEC3"
		},
		{
			"bufferView":56,
			"componentType":5126,
			"count":4,
			"type":"VEC3"
		},
		{
			"bufferView":57,
			"componentType":5126,
			"count":4,
			"type":"VEC2"
		},
		{
			"bufferView":58,
			"componentType":5123,
			"count":6,
			"type":"SCALAR"
		}
	],
	"bufferViews":[
		{
			"buffer":0,
			"byteLength":140848,
			"byteOffset":0,
			"target":34962
		},
		{
			"buffer":0,
			"byteLength":105636,
			"byteOffset":140848,
			"target":34962
		},
		{
			"buffer":0,
			"byteLength":105636,
			"byteOffset":246484,
			"target":34962
		},
		{
			"buffer":0,
			"byteLength":70424,
			"byteOffset":352120,
			"target":34962
		},
		{
			"buffer":0,
			"byteLength":35982,
			"byteOffset":422544,
			"target":34963
		},
		{
			"buffer":0,
			"byteLength":569,
			"byteOffset":458528
		},
		{
			"buffer":0,
			"byteLength":39504,
			"byteOffset":459100,
			"target":34962
		},
		{
			"buffer":0,
			"byteLength":29628,
			"byteOffset":498604,
			"target":34962
		},
		{
			"buffer":0,
			"byteLength":29628,
			"byteOffset":528232,
			"target":34962
		},
		{
			"buffer":0,
			"byteLength":19752,
			"byteOffset":557860,
			"target":34962
		},
		{
			"buffer":0,
			"byteLength":9120,
			"byteOffset":577612,
			"target":34963
		},
		{
			"buffer":0,
			"byteLength":564,
			"byteOffset":586732
		},
		{
			"buffer":0,
			"byteLength":41136,
			"byteOffset":587296,
			"target":34962
		},
		{
			"buffer":0,
			"byteLength":30852,
			"byteOffset":628432,
			"target":34962
		},
		{
			"buffer":0,
			"byteLength":30852,
			"byteOffset":659284,
			"target":34962
		},
		{
			"buffer":0,
			"byteLength":20568,
			"byteOffset":690136,
			"target":34962
		},
		{
			"buffer":0,
			"byteLength":9198,
			"byteOffset":710704,
			"target":34963
		},
		{
			"buffer":0,
			"byteLength":567,
			"byteOffset":719904
		},
		{
			"buffer":0,
			"byteLength":53056,
			"byteOffset":720472,
			"target":34962
		},
		{
			"buffer":0,
			"byteLength":39792,
			"byteOffset":773528,
			"target":34962
		},
		{
			"buffer":0,
			"byteLength":39792,
			"byteOffset":813320,
			"target":34962
		},
		{
			"buffer":0,
			"byteLength":26528,
			"byteOffset":853112,
			"target":34962
		},
		{
			"buffer":0,
			"byteLength":12444,
			"byteOffset":879640,
			"target":34963
		},
		{
			"buffer":0,
			"byteLength":569,
			"byteOffset":892084
		},
		{
			"buffer":0,
			"byteLength":71584,
			"byteOffset":892656,
			"target":34962
		},
		{
			"buffer":0,
			"byteLength":53688,
			"byteOffset":964240,
			"target":34962
		},
		{
			"buffer":0,
			"byteLength":53688,
			"byteOffset":1017928,
			"target":34962
		},
		{
			"buffer":0,
			"byteLength":35792,
			"byteOffset":1071616,
			"target":34962
		},
		{
			"buffer":0,
			"byteLength":16920,
			"byteOffset":1107408,
			"target":34963
		},
		{
			"buffer":0,
			"byteLength":567,
			"byteOffset":1124328
		},
		{
			"buffer":0,
			"byteLength":28464,
			"byteOffset":1124896,
			"target":34962
		},
		{
			"buffer":0,
			"byteLength":21348,
			"byteOffset":1153360,
			"target":34962
		},
		{
			"buffer":0,
			"byteLength":21348,
			"byteOffset":1174708,
			"target":34962
		},
		{
			"buffer":0,
			"byteLength":14232,
			"byteOffset":1196056,
			"target":34962
		},
		{
			"buffer":0,
			"byteLength":6324,
			"byteOffset":1210288,
			"target":34963
		},
		{
			"buffer":0,
			"byteLength":574,
			"byteOffset":1216612
		},
		{
			"buffer":0,
			"byteLength":76704,
			"byteOffset":1217188,
			"target":34962
		},
		{
			"buffer":0,
			"byteLength":57528,
			"byteOffset":1293892,
			"target":34962
		},
		{
			"buffer":0,
			"byteLength":57528,
			"byteOffset":1351420,
			"target":34962
		},
		{
			"buffer":0,
			"byteLength":38352,
			"byteOffset":1408948,
			"target":34962
		},
		{
			"buffer":0,
			"byteLength":18846,
			"byteOffset":1447300,
			"target":34963
		},
		{
			"buffer":0,
			"byteLength":564,
			"byteOffset":1466148
		},
		{
			"buffer":0,
			"byteLength":62032,
			"byteOffset":1466712,
			"target":34962
		},
		{
			"buffer":0,
			"byteLength":46524,
			"byteOffset":1528744,
			"target":34962
		},
		{
			"buffer":0,
			"byteLength":46524,
			"byteOffset":1575268,
			"target":34962
		},
		{
			"buffer":0,
			"byteLength":31016,
			"byteOffset":1621792,
			"target":34962
		},
		{
			"buffer":0,
			"byteLength":23496,
			"byteOffset":1652808,
			"target":34963
		},
		{
			"buffer":0,
			"byteLength":571,
			"byteOffset":1676304
		},
		{
			"buffer":0,
			"byteLength":114048,
			"byteOffset":1676876,
			"target":34962
		},
		{
			"buffer":0,
			"byteLength":85536,
			"byteOffset":1790924,
			"target":34962
		},
		{
			"buffer":0,
			"byteLength":85536,
			"byteOffset":1876460,
			"target":34962
		},
		{
			"buffer":0,
			"byteLength":57024,
			"byteOffset":1961996,
			"target":34962
		},
		{
			"buffer":0,
			"byteLength":25962,
			"byteOffset":2019020,
			"target":34963
		},
		{
			"buffer":0,
			"byteLength":570,
			"byteOffset":2044984
		},
		{
			"buffer":0,
			"byteLength":64,
			"byteOffset":2045556,
			"target":34962
		},
		{
			"buffer":0,
			"byteLength":48,
			"byteOffset":2045620,
			"target":34962
		},
		{
			"buffer":0,
			"byteLength":48,
			"byteOffset":2045668,
			"target":34962
		},
		{
			"buffer":0,
			"byteLength":32,
			"byteOffset":2045716,
			"target":34962
		},
		{
			"buffer":0,
			"byteLength":12,
			"byteOffset":2045748,
			"target":34963
		},
		{
			"buffer":0,
			"byteLength":550,
			"byteOffset":2045760
		}
	],
	"samplers":[
		{
			"magFilter":9729,
			"minFilter":9987
		}
	],
	"buffers":[
		{
			"byteLength":2046312,
			"uri":"data:application/octet-stream;base64,"
		}
	]
}
